# xmcd
#
# Track frame offsets: 
#        150
#        19562
#        37786
#        55980
#        75024
#        93726
#        111304
#        132230
#        146802
#        167598
#        189262
#        206525
#        226300
#        248300
#        267988
#        287563
#        306925
#
# Disc length: 4325 seconds
#
# Revision: 1
# Processed by: cddbd v1.5.2PL0 Copyright (c) Steve Scherf et al.
# Submitted via: ExactAudioCopy v1.3
#
DISCID=d910e311
DTITLE=彭羚 - True Legend CD 1
DYEAR=2012
DGENRE=HK Pop
TTITLE0=Let's Stay Awhile
TTITLE1=夢中情人
TTITLE2=真的天使
TTITLE3=飄
TTITLE4=秋憶
TTITLE5=尋覓在兜轉的一生
TTITLE6=冬日情濃
TTITLE7=半生緣
TTITLE8=雲流
TTITLE9=愛過痛過亦願等
TTITLE10=得失錯對
TTITLE11=為你傾心
TTITLE12=深宵
TTITLE13=我的愛落在戀人心間
TTITLE14=可以一試
TTITLE15=難道我們只可以做朋友
TTITLE16=Only You
EXTD=
EXTT0=
EXTT1=
EXTT2=
EXTT3=
EXTT4=
EXTT5=
EXTT6=
EXTT7=
EXTT8=
EXTT9=
EXTT10=
EXTT11=
EXTT12=
EXTT13=
EXTT14=
EXTT15=
EXTT16=
PLAYORDER=
